HIERARCHY
ROOT Hips
{
   OFFSET 0.00000 0.00000 0.00000
   CHANNELS 6 Xposition Yposition Zposition Zrotation Xrotation Yrotation
   JOINT RightUpLeg
   {
      OFFSET -7.156640 -6.933656 0.081322
      CHANNELS 3 Zrotation Xrotation Yrotation
      JOINT RightLeg
      {
         OFFSET 0.000000 -35.538158 1.098160
         CHANNELS 3 Zrotation Xrotation Yrotation
         JOINT RightFoot
         {
            OFFSET 0.202839 -33.673920 -1.168472
            CHANNELS 3 Zrotation Xrotation Yrotation
            JOINT RightToes
            {
               OFFSET 0.032000 -3.532072 6.799280
               CHANNELS 3 Zrotation Xrotation Yrotation
               End Site
               {
                  OFFSET -0.064000 -0.109958 7.823832
               }
            }
         }
      }
   }
   JOINT Spine
   {
      OFFSET 0.000000 9.512400 0.000000
      CHANNELS 3 Zrotation Xrotation Yrotation
      JOINT Spine1
      {
         OFFSET 0.000000 20.525920 0.102130
         CHANNELS 3 Zrotation Xrotation Yrotation
         JOINT HEad
         {
            OFFSET 0.000000 6.987328 0.009073
            CHANNELS 3 Zrotation Xrotation Yrotation
            End Site
            {
               OFFSET -0.232000 10.219360 2.011160
            }
         }
         JOINT LeftShoulder1
         {
            OFFSET 7.192000 -0.289802 -0.176000
            CHANNELS 3 Zrotation Xrotation Yrotation
            JOINT LeftArm
            {
               OFFSET 8.226160 -0.002704 0.257698
               CHANNELS 3 Zrotation Xrotation Yrotation
               JOINT LeftForeArm
               {
                  OFFSET 26.213519 0.079315 -1.139472
                  CHANNELS 3 Zrotation Xrotation Yrotation
                  JOINT LeftHand
                  {
                     OFFSET 22.051441 0.068290 0.817728
                     CHANNELS 3 Zrotation Xrotation Yrotation
                     End Site
                     {
                        OFFSET 13.395442 -0.480000 1.202328
                     }
                  }
               }
            }
         }
         JOINT RightShoulder
         {
            OFFSET -7.192000 -0.289802 -0.176000
            CHANNELS 3 Zrotation Xrotation Yrotation
            JOINT RightArm
            {
               OFFSET -8.226160 -0.002704 0.257698
               CHANNELS 3 Zrotation Xrotation Yrotation
               JOINT RightForeArm
               {
                  OFFSET -26.317679 0.079315 -1.139472
                  CHANNELS 3 Zrotation Xrotation Yrotation
                  JOINT RightHand
                  {
                     OFFSET -21.993682 0.068290 0.817728
                     CHANNELS 3 Zrotation Xrotation Yrotation
                     End Site
                     {
                        OFFSET -13.304962 -0.480000 1.202328
                     }
                  }
               }
            }
         }
      }
   }
   JOINT LeftUpLeg
   {
      OFFSET 7.156640 -6.933656 0.081322
      CHANNELS 3 Zrotation Xrotation Yrotation
      JOINT LeftLeg
      {
         OFFSET 0.000000 -35.538158 1.098160
         CHANNELS 3 Zrotation Xrotation Yrotation
         JOINT LeftFoot
         {
            OFFSET -0.202839 -33.673920 -1.168472
            CHANNELS 3 Zrotation Xrotation Yrotation
            JOINT LeftToes
            {
               OFFSET -0.032000 -3.532072 6.799280
               CHANNELS 3 Zrotation Xrotation Yrotation
               End Site
               {
                  OFFSET 0.064000 -0.037958 7.823832
               }
            }
         }
      }
   }
}
MOTION
Frames: 21
Frame Time: 0.016667
-11.0253 80.3571 -207.736 -13.4745 -16.8685 -31.0305 -12.1792 -21.9518 -20.3041 22.7547 82.5253 -27.8384 24.1481 6.35001 -3.97987 0.0462049 0.000533403 0.662642 -6.16566 31.9969 1.86456 -0.00377466 -0.0159402 0.00371949 -9.25149 -6.33277 37.5762 7.95139e-016 -1.59028e-015 -3.18055e-015 167.771 -44.5117 -157.553 -139.175 25.8343 -0.960962 8.99544 35.5648 -7.22726 8.40999 1.2566 13.954 125.032 -18.72 108.988 111.113 62.2227 18.7105 -7.45853 23.9746 3.13592 34.6515 -24.2155 21.7461 16.9362 25.2186 -7.79435 0.480028 41.8072 -21.2822 -3.36952e-008 1.56033e-007 -4.88727e-009 
-9.25255 82.1647 -206.816 -14.1475 -17.8921 -33.1667 -17.2215 -15.678 -19.8909 23.6491 75.7623 -25.9334 26.6386 9.34511 -1.31705 0.0462049 0.000533403 0.662642 -6.22112 32.3266 1.93853 -0.00377466 -0.0159402 0.00371949 -9.35156 -6.49442 37.7978 0 0 -6.36111e-015 167.706 -44.5983 -157.777 -138.164 26.5175 -1.785 8.57445 35.2859 -7.13087 7.90475 1.26891 14.4543 125.187 -18.3197 108.843 109.811 61.5462 19.4288 -7.14322 24.3716 3.46509 31.9191 -20.1402 19.1113 14.9318 24.2178 -5.10761 1.86483 39.5248 -19.5978 -3.36952e-008 1.56033e-007 -4.88727e-009 
-7.33152 84.3411 -205.311 -14.6037 -18.7384 -35.1349 -20.7865 -9.52102 -18.4944 20.8273 67.8558 -21.5896 30.8303 13.0323 0.0628291 0.0462049 0.000533403 0.662642 -6.1674 31.9756 2.08821 -0.00377466 -0.0159402 0.00371949 -9.50738 -6.10876 37.877 1.76556e-031 -1.59028e-015 6.36111e-015 168.063 -44.9071 -157.937 -137.02 27.1756 -2.5087 8.14572 35.0391 -6.93909 7.51213 1.54128 14.8831 125.285 -17.8809 108.788 108.391 60.7678 20.0917 -6.78889 24.8163 3.7028 29.9016 -14.5913 17.1668 11.41 20.7332 0.243997 0.922154 39.86 -17.7029 -3.36952e-008 1.56033e-007 -4.88727e-009 
-5.33802 86.884 -203.284 -14.8266 -19.3724 -36.88 -23.1252 -3.45578 -16.4512 17.0816 58.6156 -17.8903 36.7767 17.0041 0.070571 0.0462049 0.000533403 0.662642 -5.96958 31.0188 2.33864 -0.00377466 -0.0159402 0.00371949 -9.71799 -5.24919 37.7592 -1.59028e-015 1.59028e-015 3.18055e-015 173.662 -43.8318 -155.607 -133.256 27.4073 -1.41179 7.80608 34.8203 -6.56422 7.25452 2.01338 15.2082 125.311 -17.4159 108.796 106.896 59.9512 20.6224 -6.48405 25.1963 3.92136 27.9771 -8.05805 15.3867 7.10622 14.8653 5.77019 1.19441 41.3759 -16.0886 -3.36952e-008 1.56033e-007 -4.88727e-009 
-2.70696 91.2833 -199.813 -14.7912 -19.7804 -38.3734 -20.4897 -1.89222 -15.3965 7.50146 52.3357 -9.24953 19.5296 15.6282 2.74962 0.0462049 0.000533403 0.662642 -5.58262 29.5074 2.69912 -0.00377466 -0.0159402 0.00371949 -10.0392 -3.95436 37.4143 -7.95139e-016 7.95139e-016 -6.36111e-015 -178.88 -41.2961 -153.601 -131.283 29.8652 -0.870884 7.74232 32.1387 -1.97965 7.51049 2.55863 15.2448 126.675 -13.3546 110.065 105.136 57.0857 17.8321 -6.35604 25.6718 4.39812 24.8482 4.50688 13.3076 0.825416 -2.86301 11.4314 5.38814 47.9674 -15.3469 -3.36952e-008 1.56033e-007 -4.88727e-009 
-0.1443 95.6029 -196.101 -14.5209 -19.9878 -39.6276 -16.9679 2.30722 -13.3636 1.30845 41.8715 -4.45303 2.62516 14.5939 3.49297 0.0462049 0.000533403 0.662642 -5.02845 27.5792 3.17366 -0.00377466 -0.0159402 0.00371949 -10.4676 -2.31708 36.8821 7.95139e-016 7.95139e-016 -3.18055e-015 -174.941 -39.9145 -152.729 -130.417 31.42 -0.200345 7.6088 30.2988 0.955046 7.8441 3.3077 15.1094 127.158 -11.1066 110.615 104.107 55.435 16.0319 -6.20377 25.7902 4.36173 20.9672 7.33036 12.9313 0.785643 -2.75041 12.8473 3.51051 46.4253 -12.3376 -3.36952e-008 1.56033e-007 -4.88728e-009 
1.97984 99.1931 -192.45 -14.0589 -20.0133 -40.6765 -18.9855 10.3943 -9.65614 0.149272 27.0001 -8.6407 13.7299 17.9749 2.6572 0.0462049 0.000533403 0.662642 -4.40391 25.7508 3.66192 -0.00377466 -0.0159402 0.00371949 -10.9628 -0.824445 36.2895 -1.98785e-016 0 6.36111e-015 -173.256 -39.0863 -152.634 -130.137 32.4004 0.352954 7.59457 29.458 2.12989 8.21636 3.87776 14.9316 127.094 -9.98038 110.641 103.492 54.577 14.904 -6.37708 25.9313 4.54036 18.1357 9.65366 14.1377 0.671234 -2.64786 12.6897 0.856821 45.1996 -9.75567 -3.36952e-008 1.56033e-007 -4.88727e-009 
3.90832 102.52 -188.539 -13.4607 -19.9104 -41.5467 -20.605 26.0254 -4.9876 -0.857985 -2.16856 -16.3713 23.6345 28.4328 -0.84148 0.0462049 0.000533403 0.662642 -3.73348 24.0735 4.17502 -0.00377466 -0.0159402 0.00371949 -11.5335 0.551101 35.6824 1.98785e-016 9.93923e-017 -0 -173.102 -38.6915 -153.094 -130.222 33.0008 0.725066 7.45198 28.7693 2.88975 8.57848 4.36529 14.6305 126.688 -9.50738 110.251 103.147 54.2382 14.2132 -6.4992 25.8839 4.44854 15.568 11.4706 15.926 0.507245 -2.5965 11.9843 -1.87579 44.078 -7.55413 -3.36952e-008 1.56033e-007 -4.88727e-009 
5.66635 105.239 -184.463 -12.7709 -19.6824 -42.268 -24.6217 26.8336 0.133397 -1.29501 -1.14797 -22.1207 34.6133 25.0274 -1.19645 0.0462049 0.000533403 0.662642 -3.03093 22.5494 4.7284 -0.00377466 -0.0159402 0.00371949 -12.1822 1.84572 35.1069 -4.96962e-017 0 3.18055e-015 -174.061 -38.6238 -154.011 -130.564 33.3157 0.874075 7.47118 28.4084 2.89523 8.87076 4.85241 14.1537 126.109 -9.37863 109.53 102.997 54.2219 13.8125 -6.79428 25.8773 4.43942 14.4439 13.5979 18.3111 0.340306 -2.62506 12.0946 -16.6157 44.6658 -1.17875 -3.36952e-008 1.56033e-007 -4.88727e-009 
7.59249 108.533 -179.741 -12.034 -19.3374 -42.8534 -24.2642 26.875 4.31445 -1.58054 -1.23632 -19.9232 15.2649 20.8777 1.89813 0.0462049 0.000533403 0.662642 -2.30634 21.1905 5.31702 -0.00377466 -0.0159402 0.00371949 -12.9034 3.09176 34.6032 3.97569e-016 -1.98785e-016 -0 -175.888 -38.782 -155.325 -131.093 33.3932 0.811357 7.49807 28.0149 2.89965 9.04563 5.39716 13.4874 125.484 -9.41073 108.56 103.009 54.3866 13.5898 -7.0067 25.8229 4.18785 12.8738 15.6258 20.2226 0.128369 -2.53507 12.1031 -31.1214 43.4196 5.64526 -3.36952e-008 1.56033e-007 -4.88727e-009 
9.13577 110.749 -175.412 -11.2849 -18.8764 -43.3015 -22.3726 26.7397 7.29949 -1.80961 -1.21812 -16.2424 -4.61322 18.8417 2.57584 0.0462049 0.000533403 0.662642 -1.57235 20.0053 5.92232 -0.00377466 -0.0159402 0.00371949 -13.6831 4.31238 34.2015 -3.97569e-016 -7.95139e-016 -0 -178.404 -39.0702 -156.987 -131.75 33.2646 0.568254 7.66923 27.7608 2.60635 9.08943 6.02562 12.6452 124.891 -9.50577 107.415 103.146 54.6272 13.4753 -7.28589 25.8583 3.92111 11.6825 17.2061 21.868 -0.112733 -2.46668 11.9294 -45.2184 41.3121 11.9088 -3.36952e-008 1.56033e-007 -4.88727e-009 
10.2701 111.326 -171.765 -10.5473 -18.372 -43.626 -26.2652 26.8678 10.2701 -1.44035 -0.27416 -20.1581 24.7908 20.5407 -0.271323 0.0462049 0.000533403 0.662642 -0.900448 19.0606 6.52461 -0.00377466 -0.0159402 0.00371949 -14.5133 5.52674 33.9244 1.19271e-015 3.97569e-016 6.36111e-015 178.433 -39.3868 -158.933 -132.447 32.9256 0.200909 8.08671 27.2856 2.48424 9.02376 6.82453 11.6257 124.389 -9.58983 106.186 103.325 54.8593 13.4404 -7.66814 25.8802 3.40854 11.0075 18.34 23.1669 -0.279911 -2.48101 11.8464 -58.7155 38.7329 17.4944 -3.36952e-008 1.56033e-007 -4.88727e-009 
11.2737 113.313 -168.304 -9.83277 -17.7973 -43.8023 -25.3701 25.4989 11.0477 2.05147 -0.42339 -16.0492 16.9775 21.3924 -1.17123 0.0462049 0.000533403 0.662642 -0.298148 18.3455 7.09292 -0.00377466 -0.0159402 0.00371949 -15.3731 6.73202 33.7705 -1.19271e-015 -7.95139e-016 -9.54166e-015 174.839 -39.669 -161.074 -133.158 32.4749 -0.196924 8.1685 27.3127 2.11192 8.88812 7.62747 10.5496 123.961 -9.77785 104.853 103.542 55.0596 13.4204 -7.71027 26.1149 2.98611 8.8072 17.7353 23.8504 -0.491511 -2.62428 7.0617 -50.6072 35.9347 13.3429 -3.36952e-008 1.56033e-007 -4.88727e-009 
12.0124 114.452 -165.421 -9.14257 -17.1108 -43.8175 -24.6945 24.3708 10.7091 5.30206 -1.42324 -13.0567 19.079 22.7986 -2.51879 0.0462049 0.000533403 0.662642 0.215428 17.8391 7.61447 -0.00377466 -0.0159402 0.00371949 -16.2386 7.91257 33.7314 7.95139e-016 -3.97569e-016 3.18055e-015 171.018 -39.8651 -163.316 -133.819 32.007 -0.552535 8.37869 27.232 1.86478 8.72088 8.39254 9.50118 123.566 -10.0885 103.465 103.762 55.2199 13.3917 -7.79062 26.3226 2.48089 7.66541 17.0235 23.7875 -0.639714 -2.6021 3.75225 -42.9054 32.7938 9.64482 -3.36952e-008 1.56033e-007 -4.88727e-009 
12.6357 115.156 -162.878 -8.46881 -16.2686 -43.66 -20.2586 23.021 7.72762 2.71312 -2.27894 -8.90524 18.9341 24.2215 -3.81814 0.0462049 0.000533403 0.662642 0.614941 17.5167 8.08314 -0.00377466 -0.0159402 0.00371949 -17.0905 9.04903 33.7937 -7.95139e-016 -3.97569e-016 3.18055e-015 167.156 -39.9406 -165.57 -134.396 31.603 -0.809914 8.35325 27.4662 1.44546 8.55168 9.07453 8.54868 123.165 -10.5335 102.054 103.966 55.348 13.3295 -7.64632 26.6474 2.09974 6.9727 16.0806 22.8836 -0.742839 -2.42358 2.29361 -35.2638 29.6164 6.62129 -3.36952e-008 1.56033e-007 -4.88728e-009 
13.2231 115.246 -160.679 -7.80008 -15.3651 -43.4009 -16.4173 20.5077 4.24838 0.524558 -1.8908 -5.53498 20.4318 24.8162 -5.01529 0.0462049 0.000533403 0.662642 0.88374 17.3407 8.48898 -0.00377466 -0.0159402 0.00371949 -17.9134 10.12 33.9409 3.97569e-016 -7.95139e-016 -3.18055e-015 163.414 -39.8725 -167.755 -134.852 31.3179 -0.948408 8.36866 27.641 1.05521 8.40845 9.62935 7.74874 122.719 -11.1151 100.648 104.12 55.4503 13.2331 -7.53938 26.9388 1.77612 6.43994 14.6228 20.5696 -0.670026 -2.20202 3.30192 -27.8079 26.9788 4.37524 -3.36952e-008 1.56033e-007 -4.88726e-009 
13.8962 114.948 -158.672 -7.11913 -14.5118 -43.116 -13.7771 17.8873 0.839654 0.298488 -2.2946 -2.46289 18.9784 26.0047 -5.68755 0.0462049 0.000533403 0.662642 1.01785 17.2725 8.82754 -0.00377466 -0.0159402 0.00371949 -18.6974 11.1041 34.1541 3.97569e-016 0 -3.18055e-015 159.936 -39.6458 -169.818 -135.169 31.1772 -0.978362 8.21491 27.9985 0.514328 8.31543 10.0199 7.13728 122.195 -11.8182 99.2779 104.194 55.5294 13.115 -7.33524 27.2902 1.64129 5.84116 12.927 17.3544 -0.458476 -1.98878 5.916 -20.6922 24.8087 2.71968 -3.36952e-008 1.56033e-007 -4.88727e-009 
14.6207 114.408 -156.937 -6.39056 -13.7041 -42.8411 -12.239 15.3731 -3.02778 0.115062 -2.57073 1.00934 17.3342 27.9775 -5.97187 0.0462049 0.000533403 0.662642 0.985324 17.2795 9.14451 -0.00377466 -0.0159402 0.00371949 -19.4397 11.9831 34.414 -1.78906e-015 7.95139e-016 3.18055e-015 156.826 -39.2532 -171.72 -135.332 31.1776 -0.935788 8.06768 28.3024 -0.0386693 8.28192 10.2244 6.724 121.58 -12.6054 97.9811 104.156 55.5777 13.0053 -7.19716 27.6158 1.64009 5.50781 9.80709 13.5381 -0.155099 -1.66944 8.37866 -4.15127 20.9625 -1.08156 -3.36952e-008 1.56033e-007 -4.88727e-009 
15.4678 112.925 -155.046 -5.6047 -12.959 -42.5985 -15.1202 2.78505 -6.28573 3.68449 19.7601 3.70107 11.9706 19.1223 -2.77317 0.0462049 0.000533403 0.662642 0.80935 17.3359 9.4666 -0.00377466 -0.0159402 0.00371949 -20.1519 12.7507 34.7039 -1.3418e-015 2.98177e-016 -3.18055e-015 154.135 -38.6982 -173.471 -135.364 31.331 -0.830933 7.78001 28.8637 -0.765314 8.36781 10.1765 6.53998 120.785 -13.5119 96.7828 104.031 55.6168 12.8409 -6.91169 28.1263 1.85081 9.24061 7.24263 9.70779 0.232389 -1.31996 13.2716 -12.5037 17.8548 0.916096 -3.36952e-008 1.56033e-007 -4.88727e-009 
16.3639 111.182 -153.193 -4.76918 -12.311 -42.3757 -16.0251 -3.90606 -9.98411 0.465099 30.6326 7.65175 10.4806 15.663 -1.60648 0.0462049 0.000533403 0.662642 0.506256 17.4513 9.77787 -0.00377466 -0.0159402 0.00371949 -20.8344 13.4003 35.0141 1.19271e-015 -1.68967e-015 -6.36111e-015 151.843 -38.0066 -175.106 -135.295 31.5776 -0.77159 7.59702 29.0897 -1.4006 8.46199 10.022 6.45341 119.929 -14.3303 95.7596 103.812 55.622 12.7364 -6.90567 28.4025 2.19381 11.9688 4.17105 6.43063 0.992098 -1.29844 15.3984 -10.9861 14.2932 -0.0981916 -3.36952e-008 1.56033e-007 -4.88727e-009 
17.3762 108.908 -151.096 -3.91722 -11.778 -42.1792 -16.82 -9.00403 -13.4293 -5.61821 38.5234 13.2543 9.95647 13.0865 -0.930856 0.0462049 0.000533403 0.662642 0.105732 17.6302 10.0798 -0.00377466 -0.0159402 0.00371949 -21.4887 13.9358 35.3374 -1.39149e-015 1.98785e-016 3.18055e-015 149.889 -37.2141 -176.685 -135.158 31.8547 -0.804491 7.32665 29.4264 -1.92888 8.51253 9.80661 6.37248 119.073 -14.9855 94.9195 103.537 55.5696 12.6995 -6.73983 28.7798 2.43539 14.9315 1.76419 3.92155 1.33941 -1.57016 17.5666 -14.5464 12.5605 -0.0469123 -3.36952e-008 1.56033e-007 -4.88727e-009 
